<?xml version="1.0" encoding="utf-8"?>
<!-- Generator: Adobe Illustrator 27.5.0, SVG Export Plug-In . SVG Version: 6.00 Build 0)  -->
<svg version="1.1" id="Layer_1" xmlns="http://www.w3.org/2000/svg" xmlns:xlink="http://www.w3.org/1999/xlink" x="0px" y="0px"
	 viewBox="0 0 20 20" style="enable-background:new 0 0 20 20;" xml:space="preserve">
<style type="text/css">
	.st0{fill:#A7AAAD;}
</style>
<g>
	<path class="st0" d="M8.2,14v2.4c0,0.7,0.8,1.3,1.8,1.3c1,0,1.8-0.6,1.8-1.3V14c-0.5,0.3-1.2,0.5-1.8,0.5C9.3,14.5,8.7,14.3,8.2,14
		z"/>
	<g>
		<path class="st0" d="M10.5,6.9c-0.2,0-0.3,0-0.5,0c-0.2,0-0.3,0-0.4,0c-1.8,0.2-3.2,1.7-3.2,3.6c0,1.3,0.7,2.5,1.8,3.2
			c0.5,0.3,1.2,0.5,1.8,0.5c0.7,0,1.3-0.2,1.8-0.5c1.1-0.6,1.8-1.8,1.8-3.2C13.7,8.6,12.3,7.1,10.5,6.9z"/>
	</g>
</g>
<path class="st0" d="M14.2,11l5.1,0.2l0.6-0.7l-0.6-0.7L14.2,10c0,0.1,0,0.3,0,0.4C14.3,10.6,14.3,10.8,14.2,11z"/>
<path class="st0" d="M5.8,10L0.6,9.8L0,10.5l0.6,0.7l5.1-0.3c0-0.1,0-0.3,0-0.4C5.7,10.3,5.7,10.2,5.8,10z"/>
<path class="st0" d="M10.5,6.2l0.2-5.1L10,0.5L9.3,1.1l0.3,5.1c0.1,0,0.3,0,0.4,0C10.2,6.2,10.3,6.2,10.5,6.2z"/>
<path class="st0" d="M13.3,7.8l3.8-3.5l-0.1-1l-1-0.1l-3.4,3.8c0.1,0.1,0.2,0.2,0.3,0.3C13.1,7.6,13.2,7.7,13.3,7.8z"/>
<path class="st0" d="M6.7,13.1l-3.8,3.5l0.1,1l1,0.1l3.4-3.8c-0.1-0.1-0.2-0.2-0.3-0.3C6.9,13.4,6.8,13.3,6.7,13.1z"/>
<path class="st0" d="M7.3,7.1L3.9,3.4l-1,0.1l-0.1,1l3.8,3.4C6.8,7.7,6.9,7.6,7,7.5C7.1,7.3,7.2,7.2,7.3,7.1z"/>
<path class="st0" d="M12.7,13.8l3.5,3.8l1-0.1l0.1-1l-3.8-3.4c-0.1,0.1-0.2,0.2-0.3,0.3C12.9,13.6,12.8,13.7,12.7,13.8z"/>
</svg>
