<?xml version="1.0" encoding="utf-8"?>
<!-- Generator: Adobe Illustrator 27.5.0, SVG Export Plug-In . SVG Version: 6.00 Build 0)  -->
<svg version="1.1" xmlns="http://www.w3.org/2000/svg" xmlns:xlink="http://www.w3.org/1999/xlink" x="0px" y="0px"
	 viewBox="0 0 20 20" style="enable-background:new 0 0 20 20;" xml:space="preserve">
<style type="text/css">
	.st0{fill:#A7AAAD;}
</style>
<g id="Layer_1">
	
		<rect x="17.3" y="8.4" transform="matrix(-1.836970e-16 1 -1 -1.836970e-16 27.7899 -7.3192)" class="st0" width="0.6" height="3.6"/>
	<g>
		<path class="st0" d="M8.2,15v2.4c0,0.7,0.8,1.3,1.8,1.3s1.8-0.6,1.8-1.3V15c-0.5,0.3-1.2,0.5-1.8,0.5C9.3,15.5,8.7,15.3,8.2,15z"
			/>
	</g>
	<circle class="st0" cx="10" cy="10.2" r="4.8"/>
	
		<rect x="2.1" y="8.4" transform="matrix(-1.836970e-16 1 -1 -1.836970e-16 12.6808 7.7898)" class="st0" width="0.6" height="3.6"/>
	<rect x="9.7" y="0.9" class="st0" width="0.6" height="3.6"/>
	<rect x="15" y="3.1" transform="matrix(0.7071 0.7071 -0.7071 0.7071 7.9537 -9.4151)" class="st0" width="0.6" height="3.6"/>
	<rect x="4.4" y="13.8" transform="matrix(0.7071 0.7071 -0.7071 0.7071 12.3791 1.2687)" class="st0" width="0.6" height="3.6"/>
	<rect x="15" y="13.8" transform="matrix(-0.7071 0.7071 -0.7071 -0.7071 37.2049 15.7436)" class="st0" width="0.6" height="3.6"/>
	<rect x="4.4" y="3.1" transform="matrix(-0.7071 0.7071 -0.7071 -0.7071 11.4121 5.0598)" class="st0" width="0.6" height="3.6"/>
	<rect x="16.7" y="11.4" transform="matrix(-0.3827 0.9239 -0.9239 -0.3827 35.646 2.5249)" class="st0" width="0.6" height="3.6"/>
	<rect x="2.7" y="5.6" transform="matrix(-0.3827 0.9239 -0.9239 -0.3827 11.0033 7.4266)" class="st0" width="0.6" height="3.6"/>
	<rect x="12.6" y="1.5" transform="matrix(0.9239 0.3827 -0.3827 0.9239 2.2445 -4.6819)" class="st0" width="0.6" height="3.6"/>
	<rect x="16.7" y="5.6" transform="matrix(0.3827 0.9239 -0.9239 0.3827 17.3086 -11.1254)" class="st0" width="0.6" height="3.6"/>
	<rect x="2.7" y="11.4" transform="matrix(0.3827 0.9239 -0.9239 0.3827 14.0334 5.3403)" class="st0" width="0.6" height="3.6"/>
	<rect x="6.8" y="1.5" transform="matrix(-0.9239 0.3827 -0.3827 -0.9239 14.9401 3.63)" class="st0" width="0.6" height="3.6"/>
</g>
<g id="Layer_2">
</g>
</svg>
